# xmcd CD database file
#
# Track frame offsets:
#	150
#	15240
#	33712
#	49690
#	66716
#	82792
#	100180
#	115331
#	129447
#	147233
#	166134
#	184963
#	188265
#
# Disc length: 2763 seconds
#
# Revision: 0
# Processed by: cddbd v1.5.2PL0 Copyright (c) Steve Scherf et al.
# Submitted via: cdripper 1,0,43,1226
#
DISCID=a60ac90d
DTITLE=Gary D. and the Fabulous Armadillos - Diary of a Decade
DYEAR=2005
DGENRE=Country
TTITLE0=Something Ain't Right in Texas
TTITLE1=Smile
TTITLE2=Just Give Me A Sign
TTITLE3=Password to Heaven
TTITLE4=Drifting Away
TTITLE5=To Love Again
TTITLE6=Just Tell Me
TTITLE7=Here Comes the Sun
TTITLE8=I Need You
TTITLE9=I've Been Around
TTITLE10=Hope and Tears
TTITLE11=Young Gary D.
TTITLE12=Baby Grand
EXTD=YEAR: 2005
EXTT0=
EXTT1=
EXTT2=
EXTT3=
EXTT4=
EXTT5=
EXTT6=
EXTT7=
EXTT8=
EXTT9=
EXTT10=
EXTT11=
EXTT12=
PLAYORDER=
